<svg xmlns="http://www.w3.org/2000/svg" width="64" height="64" viewBox="0 0 64 64">
  <defs>
    <linearGradient id="bg" x1="0" y1="0" x2="1" y2="1">
      <stop offset="0%" stop-color="#1FAF45"/>
      <stop offset="50%" stop-color="#0D5C2A"/>
      <stop offset="100%" stop-color="#041B10"/>
    </linearGradient>
    <linearGradient id="flame" x1="0" y1="0" x2="0" y2="1">
      <stop offset="0%" stop-color="#D7FF57"/>
      <stop offset="40%" stop-color="#65FF63"/>
      <stop offset="100%" stop-color="#059669"/>
    </linearGradient>
  </defs>
  <rect x="0" y="0" width="64" height="64" rx="14" fill="url(#bg)"/>
  <circle cx="32" cy="28" r="18" fill="none" stroke="rgba(34,197,94,0.12)" stroke-width="1"/>
  <ellipse cx="18" cy="56" rx="14" ry="6" fill="rgba(122,59,255,0.1)"/>
  <ellipse cx="46" cy="56" rx="12" ry="5" fill="rgba(69,32,165,0.08)"/>
  <path d="M27 36 Q24 44 32 54 Q40 44 37 36 Z" fill="url(#flame)"/>
  <path d="M22 30 L13 38 L17 38 L22 34 Z" fill="#B0B5BD"/>
  <path d="M42 30 L51 38 L47 38 L42 34 Z" fill="#B0B5BD"/>
  <rect x="24" y="13" width="16" height="23" rx="4" fill="#F3F4F6"/>
  <path d="M24 13 Q32 0 40 13 Z" fill="#16A34A"/>
  <circle cx="32" cy="23" r="4" fill="#0F172A"/>
  <circle cx="32" cy="23" r="3.5" fill="none" stroke="rgba(124,58,237,0.15)" stroke-width="0.8"/>
  <path d="M29.5 21 Q32 20 34.5 21" fill="none" stroke="rgba(255,255,255,0.12)" stroke-width="0.7"/>
  <circle cx="14" cy="12" r="1" fill="#fff" opacity="0.5"/>
  <circle cx="50" cy="10" r="0.7" fill="#fff" opacity="0.35"/>
  <circle cx="50" cy="22" r="0.8" fill="#22C55E" opacity="0.4"/>
  <circle cx="14" cy="24" r="0.6" fill="#7C3AED" opacity="0.3"/>
</svg>
